<?xml version="1.0" encoding="UTF-8"?><svg id="Layer_1" xmlns="http://www.w3.org/2000/svg" viewBox="0 0 24 24"><defs><style>.cls-1{fill:none;stroke:#000;stroke-linecap:round;stroke-miterlimit:10;stroke-width:1.5px;}</style></defs><path class="cls-1" d="M1.492,7.4749c.4237,.363,.7149,1.6931,1.6922,2.351,.9773,.6579,2.7628,.3964,4.1715,1.5965,1.4087,1.2,3.4339,4.6725,4.2805,5.6037"/><path class="cls-1" d="M1.7507,6.4314c.5045,.4047,2.183,1.7805,3.04,2.8149s.845,2.025,2.1019,3.3916c1.2569,1.3665,4.6371,4.1189,5.4395,4.8077"/><path class="cls-1" d="M11.1177,16.7896c.7364-.2472,3.2982-.0419,4.3184-.8729,1.0202-.831,.6243-2.6161,1.8029-4.1133,1.1786-1.4972,4.4815-4.1668,5.2689-4.8699"/><path class="cls-1" d="M11.047,17.5686c.4879-.5331,2.7585-2.6349,3.7314-3.457s.8895-.3567,2.106-1.4757,4.2867-4.2287,5.1928-5.2383"/></svg>