<?xml version="1.0" encoding="UTF-8"?><svg id="Layer_1" xmlns="http://www.w3.org/2000/svg" viewBox="0 0 24 24"><defs><style>.cls-1{fill:none;stroke:#000;stroke-linecap:round;stroke-miterlimit:10;stroke-width:1.5px;}</style></defs><path class="cls-1" d="M7.3305,4.8749c.4477,.2072,1.2699,.5473,1.7693,1.128,.4994,.5807,.7182,1.6683,1.2271,2.3563,.5089,.688,1.6793,1.6488,1.8264,1.7719"/><path class="cls-1" d="M6.5865,4.7796c.2231,.3174,1.2588,1.2343,1.8951,1.8427,.6363,.6085,1.347,1.2878,1.9225,1.8081,.5755,.5203,1.2483,1.1427,1.5303,1.3139"/><path class="cls-1" d="M11.8605,9.7928c.0618-.1784,.4183-1.3375,.7484-1.793,.3301-.4554,.5061-.3931,1.2323-.9396,.7262-.5465,2.7223-2.0147,3.1247-2.3392"/><path class="cls-1" d="M11.797,9.4012c.3151-.2281,1.2094-.8646,1.5973-1.2059s.1506-.2319,.7301-.8418c.5796-.61,2.2484-2.3985,2.7474-2.818"/><path class="cls-1" d="M11.8717,9.6606c.0409,.516,.0821,2.2822-.0352,3.4735-.1173,1.1913-.5826,2.7061-.6685,3.6743-.0859,.9682,.0566,1.569,.1529,2.1349"/><path class="cls-1" d="M12.2282,9.4911c-.093,.6185-.474,2.3011-.5988,3.4371-.1248,1.136-.1723,2.2894-.1499,3.3788s.1544,2.6442,.2844,3.1576"/><path class="cls-1" d="M6.5515,9.656c.2836,.2545,.9647,1.0425,1.31,1.4334,.3452,.3909,.2023,.4248,.7614,.9123,.5591,.4875,2.0164,1.4891,2.593,2.0127"/><path class="cls-1" d="M6.5437,9.7653c.1632,.2884,1.1177,.8634,1.5343,1.2625,.4166,.3992,.3775,.5134,.9652,1.1326,.5877,.6193,2.1267,2.175,2.5608,2.5831"/><path class="cls-1" d="M11.8411,14.9361c.1533-.1296,.3053-.6555,.819-1.2979,.5137-.6423,1.4637-1.8878,2.263-2.5562,.7994-.6685,2.1444-1.2538,2.5332-1.4544"/><path class="cls-1" d="M11.9606,14.7175c.2201-.2802,.9798-1.1708,1.4352-1.6032,.4554-.4324,.7734-.4228,1.2974-.9912,.5239-.5685,1.4708-1.976,1.8463-2.4197"/></svg>